<svg xmlns="http://www.w3.org/2000/svg" width="81" height="80" viewBox="0 0 81 80" fill="none">
<path d="M78.8461 49.6511C73.5086 71.0665 51.8183 84.1436 30.3635 78.8028C8.94794 73.449 -4.1081 51.7586 1.22944 30.3431C6.56698 8.92759 28.2442 -4.14947 49.6467 1.19131C71.1146 6.46665 84.1706 28.2225 78.8461 49.6511Z" fill="#000008"/>
<path d="M64.7426 52.3474L56.4885 60.971C56.3091 61.1584 56.092 61.3077 55.8507 61.4098C55.6095 61.5119 55.3493 61.5645 55.0863 61.5644H15.9582C15.7715 61.5644 15.5889 61.5112 15.4328 61.4115C15.2766 61.3117 15.1538 61.1698 15.0794 61.0029C15.005 60.8361 14.9822 60.6518 15.0139 60.4725C15.0455 60.2933 15.1303 60.1269 15.2576 59.994L23.5179 51.3703C23.6968 51.1835 23.9132 51.0344 24.1537 50.9324C24.3942 50.8303 24.6536 50.7774 24.9159 50.777H64.0418C64.2285 50.777 64.4111 50.8301 64.5673 50.9299C64.7233 51.0296 64.846 51.1716 64.9208 51.3384C64.995 51.5052 65.0178 51.6896 64.9861 51.8688C64.9545 52.0481 64.8698 52.2144 64.7426 52.3474ZM56.4885 34.9818C56.3091 34.7945 56.092 34.6451 55.8507 34.543C55.6095 34.441 55.3493 34.3884 55.0863 34.3885H15.9582C15.7715 34.3885 15.5889 34.4416 15.4328 34.5414C15.2766 34.6411 15.1538 34.7831 15.0794 34.9499C15.005 35.1167 14.9822 35.3011 15.0139 35.4803C15.0455 35.6596 15.1303 35.8259 15.2576 35.9589L23.5179 44.5826C23.6968 44.7694 23.9132 44.9184 24.1537 45.0205C24.3942 45.1225 24.6536 45.1754 24.9159 45.1758H64.0418C64.2285 45.1758 64.4111 45.1227 64.5673 45.023C64.7233 44.9232 64.846 44.7812 64.9208 44.6145C64.995 44.4476 65.0178 44.2633 64.9861 44.084C64.9545 43.9048 64.8698 43.7385 64.7426 43.6054L56.4885 34.9818ZM15.9582 28.7874H55.0863C55.3493 28.7875 55.6095 28.7349 55.8507 28.6328C56.092 28.5307 56.3091 28.3814 56.4885 28.1941L64.7426 19.5704C64.8698 19.4374 64.9545 19.2711 64.9861 19.0918C65.0178 18.9126 64.995 18.7282 64.9208 18.5614C64.846 18.3946 64.7233 18.2526 64.5673 18.1529C64.4111 18.0531 64.2285 18 64.0418 18H24.9159C24.6536 18.0004 24.3942 18.0533 24.1537 18.1554C23.9132 18.2574 23.6968 18.4065 23.5179 18.5933L15.2598 27.217C15.1325 27.3498 15.0478 27.516 15.0161 27.695C14.9844 27.8741 15.007 28.0583 15.0811 28.225C15.1553 28.3917 15.2778 28.5337 15.4336 28.6336C15.5894 28.7335 15.7717 28.7869 15.9582 28.7874Z" fill="url(#paint0_linear_693_3711)"/>
<defs>
<linearGradient id="paint0_linear_693_3711" x1="19.2206" y1="62.6026" x2="59.0561" y2="16.5068" gradientUnits="userSpaceOnUse">
<stop offset="0.08" stopColor="#9945FF"/>
<stop offset="0.3" stopColor="#8752F3"/>
<stop offset="0.5" stopColor="#5497D5"/>
<stop offset="0.6" stopColor="#43B4CA"/>
<stop offset="0.72" stopColor="#28E0B9"/>
<stop offset="0.97" stopColor="#19FB9B"/>
</linearGradient>
</defs>
<script xmlns=""/></svg>